<?xml version="1.0" encoding="utf-8"?>
<!DOCTYPE svg PUBLIC "-//W3C//DTD SVG 20010904//EN" "http://www.w3.org/TR/2001/REC-SVG-20010904/DTD/svg10.dtd">
<svg version="1.0" xmlns="http://www.w3.org/2000/svg" width="80px" height="80px" viewBox="0 0 80 80" preserveAspectRatio="xMidYMid meet">
 <g fill="#666966">
  <path d="M9.3 74.3 c-0.7 -0.2 -1.3 -1.2 -1.3 -2.2 0 -1.6 5.5 -16.2 13.2 -35.1 1.6 -4.1 4.4 -10.9 6 -15 5.4 -13.4 7.1 -16.4 10.1 -17.5 4.3 -1.4 7.6 0.9 10.3 7.5 13.6 32.9 23.4 57.9 23.4 59.9 0 2 -1.9 3.1 -5.1 3.1 -1.9 0 -2.7 -1.4 -6.4 -11 -1 -2.5 -2.1 -5.4 -2.6 -6.5 -0.4 -1.1 -2.4 -6.5 -4.5 -12 -2 -5.5 -4.5 -12.2 -5.6 -15 -1.1 -2.7 -2.4 -6.4 -2.9 -8 -1.4 -4.7 -3.3 -6.8 -5.5 -6.1 -1.4 0.5 -4.4 7.4 -12.3 28.4 -5.7 15.2 -10.8 28.3 -11.4 29 -1 1.2 -3.2 1.5 -5.4 0.5z"/>
 </g>
 <g fill="#26a9e1">
  <path d="M36.3 54.3 c-1.6 -0.6 -1.7 -6.5 -0.1 -8.1 0.7 -0.7 2.1 -1.2 3.3 -1.2 3 0 4.5 1.9 4.5 5.6 0 3.9 -3.3 5.5 -7.7 3.7z"/>
 </g>
</svg>